name ./resultDataOpenSim/trcMotMarkerGrf/sub09/grf-02-01.mot
datacolumns 19
datarows 12
range 0.97200000 1.01600000
endheader

                time	     ground_force_vx	     ground_force_vy	     ground_force_vz	     ground_force_px	     ground_force_py	     ground_force_pz	   l_ground_force_vx	   l_ground_force_vy	   l_ground_force_vz	   l_ground_force_px	   l_ground_force_py	   l_ground_force_pz	     ground_torque_x	     ground_torque_y	     ground_torque_z	   l_ground_torque_x	   l_ground_torque_y	   l_ground_torque_z	
          0.97200000	          0.00000000	          0.00000000	          0.00000000	          0.00000000	          0.00000000	          0.00000000	         -6.39438319	        510.31398688	          7.16484481	          0.14812644	         -0.02500000	          0.01987040	          0.00000000	          0.00000000	          0.00000000	          0.00000000	         -1.82282698	          0.00000000	
          0.97600000	          0.00000000	          0.00000000	          0.00000000	          0.00000000	          0.00000000	          0.00000000	         -4.12122914	        515.98763433	          6.95144206	          0.14813656	         -0.02500000	          0.01982720	          0.00000000	          0.00000000	          0.00000000	          0.00000000	         -2.07369720	          0.00000000	
          0.98000000	          0.00000000	          0.00000000	          0.00000000	          0.00000000	          0.00000000	          0.00000000	         -1.48268360	        521.40250755	          6.77076916	          0.14827974	         -0.02500000	          0.01982873	          0.00000000	          0.00000000	          0.00000000	          0.00000000	         -2.32743158	          0.00000000	
          0.98400000	          0.00000000	          0.00000000	          0.00000000	          0.00000000	          0.00000000	          0.00000000	          1.55466496	        526.53585280	          6.66706703	          0.14859016	         -0.02500000	          0.01990136	          0.00000000	          0.00000000	          0.00000000	          0.00000000	         -2.57696240	          0.00000000	
          0.98800000	          0.00000000	          0.00000000	          0.00000000	          0.00000000	          0.00000000	          0.00000000	          5.01472348	        531.43435393	          6.67304576	          0.14909410	         -0.02500000	          0.02006949	          0.00000000	          0.00000000	          0.00000000	          0.00000000	         -2.81866833	          0.00000000	
          0.99200000	          0.00000000	          0.00000000	          0.00000000	          0.00000000	          0.00000000	          0.00000000	          8.89653225	        536.17754642	          6.79696177	          0.14975026	         -0.02500000	          0.02032867	          0.00000000	          0.00000000	          0.00000000	          0.00000000	         -3.05314267	          0.00000000	
          0.99600000	          0.00000000	          0.00000000	          0.00000000	          0.00000000	          0.00000000	          0.00000000	         13.17332475	        540.86909828	          7.01437156	          0.15046339	         -0.02500000	          0.02064450	          0.00000000	          0.00000000	          0.00000000	          0.00000000	         -3.28473241	          0.00000000	
          1.00000000	          0.00000000	          0.00000000	          0.00000000	          0.00000000	          0.00000000	          0.00000000	         17.79979094	        545.63956608	          7.26891441	          0.15112726	         -0.02500000	          0.02096774	          0.00000000	          0.00000000	          0.00000000	          0.00000000	         -3.51990641	          0.00000000	
          1.00400000	          0.00000000	          0.00000000	          0.00000000	          0.00000000	          0.00000000	          0.00000000	         22.71086183	        550.63032702	          7.47883922	          0.15165415	         -0.02500000	          0.02125766	          0.00000000	          0.00000000	          0.00000000	          0.00000000	         -3.76487460	          0.00000000	
          1.00800000	          0.00000000	          0.00000000	          0.00000000	          0.00000000	          0.00000000	          0.00000000	         27.82328937	        555.95795281	          7.55677653	          0.15202617	         -0.02500000	          0.02149007	          0.00000000	          0.00000000	          0.00000000	          0.00000000	         -4.02315115	          0.00000000	
          1.01200000	          0.00000000	          0.00000000	          0.00000000	          0.00000000	          0.00000000	          0.00000000	         33.04651985	        561.69578432	          7.44941057	          0.15225289	         -0.02500000	          0.02165105	          0.00000000	          0.00000000	          0.00000000	          0.00000000	         -4.29383762	          0.00000000	
          1.01600000	          0.00000000	          0.00000000	          0.00000000	          0.00000000	          0.00000000	          0.00000000	         38.29381872	        567.86339324	          7.16659020	          0.15234819	         -0.02500000	          0.02174438	          0.00000000	          0.00000000	          0.00000000	          0.00000000	         -4.57118625	          0.00000000	
